<svg xmlns="http://www.w3.org/2000/svg" viewBox="0 0 364 376.67"><defs><style>.cls-1{fill:#ff3e6b;}.cls-2{fill:#5f5fff;}.cls-3{fill:#030047;}.cls-4{fill:#ffcc3d;}.cls-5{fill:#90acff;}.cls-12,.cls-13,.cls-6,.cls-7,.cls-8,.cls-9{fill:none;stroke-miterlimit:10;}.cls-6{stroke:#5f5fff;}.cls-12,.cls-13,.cls-6,.cls-7,.cls-9{stroke-linecap:round;}.cls-13,.cls-6{stroke-width:2px;}.cls-13,.cls-7,.cls-9{stroke:#fff;}.cls-7{stroke-width:3px;}.cls-8{stroke:#000;}.cls-10{fill:#ffcc3c;}.cls-11{fill:#e4e4f0;}.cls-12{stroke:#030047;}.cls-14{fill:#fff;}</style></defs><title>humanworking</title><g id="Layer_2" data-name="Layer 2"><path class="cls-1" d="M686,270s32-27,56-4c0,0,6,3,12,20v54s-13,28-26,24-2-42-2-42Z" transform="translate(-488 -222.33)"/><path class="cls-2" d="M670,265s18,20,43,8,28-34,11-44c0,0-10-7-22,3,0,0-15,5-37-9,0,0-25-6-27,18Z" transform="translate(-488 -222.33)"/><path class="cls-3" d="M670,270s-24,4-30,29v25s9-2,8,23l-6,37s79,3,100-14C742,370,722,258,670,270Z" transform="translate(-488 -222.33)"/><path class="cls-4" d="M653.24,277.92s16.31,23.68,31-8.12C684.27,269.8,665.49,265.84,653.24,277.92Z" transform="translate(-488 -222.33)"/><path class="cls-5" d="M646.12,384.11S643,412,636,422s-35,92-35,92-9,24-7,36l54,18,39-133s4,53,26,67,20,14,20,14l72,31,20-48-63-31s-14-12-15-47-8-50-8-50S658.24,390.22,646.12,384.11Z" transform="translate(-488 -222.33)"/><polyline class="cls-6" points="188 178.67 200 183.67 200 207.67"/><path class="cls-7" d="M728.5,373.5s1.69,37.92,4.5,65.5c2.5,24.5,46.64,68.27,86.32,73.64" transform="translate(-488 -222.33)"/><path class="cls-2" d="M593.71,548.2l49.36,18.16L625,599l-62-38s7-14,24-8Z" transform="translate(-488 -222.33)"/><path class="cls-2" d="M825,499l27,9-24,69s-11-4-14-23c0,0,1.48-10-5.26-14Z" transform="translate(-488 -222.33)"/><path class="cls-8" d="M646.42,247.32S647,257,649,258" transform="translate(-488 -222.33)"/><path class="cls-8" d="M678,244s3-6,8-4" transform="translate(-488 -222.33)"/><path class="cls-1" d="M691.2,272.14S681,297,688,314l-2,8s-12.91-16.79-.45-51.89Z" transform="translate(-488 -222.33)"/><path class="cls-1" d="M721,340.12l13.68.64,1.72,5.86s-10.57,2.62-16.49,0Z" transform="translate(-488 -222.33)"/><polygon class="cls-5" points="19 71.67 69 104.67 77 121.67 109 117.67 149.09 153.96 92 161.67 41 128.67 19 71.67"/><line class="cls-9" x1="77" y1="128.67" x2="90" y2="155.67"/><line class="cls-9" x1="94" y1="143.67" x2="101" y2="150.67"/><line class="cls-9" x1="90" y1="134.67" x2="97" y2="140.67"/><line class="cls-9" x1="101" y1="143.67" x2="108" y2="148.67"/><path class="cls-10" d="M638,241s6,32,23,26,18-15,18-15,14-1,12-14c0,0-3-10-18,0,0,0-17,3-25-3C648,235,643,243,638,241Z" transform="translate(-488 -222.33)"/><ellipse class="cls-11" cx="542" cy="340.5" rx="5" ry="7.5" transform="translate(-568.36 -31.41) rotate(-18.62)"/><path class="cls-4" d="M686,320l35,16s2,58-66,43c0,0-10,6-38-15,0,0-5,8-14-1,0,0-2,5-8-2,0,0-11,1-13-6,0,0-9-2,0-11s25-9,36-5,26,7,22-12c0,0,6.7-13.15,7.85,20.92,0,0,21.15,7.08,34.15-11.92C682,336,689,322,686,320Z" transform="translate(-488 -222.33)"/><line class="cls-12" x1="101.5" y1="326.17" x2="110.5" y2="339.17"/><line class="cls-12" x1="97.5" y1="326.17" x2="104.5" y2="339.17"/><line class="cls-12" x1="323.5" y1="324.17" x2="334.5" y2="320.17"/><line class="cls-12" x1="323.5" y1="331.17" x2="334.5" y2="327.17"/><path class="cls-13" d="M592,357s1-24,52-7" transform="translate(-488 -222.33)"/><polygon class="cls-14" points="31 10.67 0 58.67 31 62.67 31 86.67 46 44.67 23 42.67 31 10.67"/><rect class="cls-14" x="536" y="248" width="16" height="16" transform="translate(-541.27 -35.2) rotate(-18.62)"/><circle class="cls-14" cx="46" cy="68.67" r="10"/><path class="cls-13" d="M549.09,321.22s-9.71-23.85,15.28-24,16.24-26.39,16.24-26.39" transform="translate(-488 -222.33)"/><path class="cls-13" d="M545.4,307.41s-8.62-21.18,13.57-21.34,14.43-23.44,14.43-23.44" transform="translate(-488 -222.33)"/></g></svg>